<svg xmlns="http://www.w3.org/2000/svg" xmlns:xlink="http://www.w3.org/1999/xlink" width="500" zoomAndPan="magnify" viewBox="0 0 375 374.999991" height="500" preserveAspectRatio="xMidYMid meet" version="1.0"><defs><g/><clipPath id="317d41aecd"><path d="M 165 121 L 280.855469 121 L 280.855469 289.097656 L 165 289.097656 Z M 165 121 " clip-rule="nonzero"/></clipPath><clipPath id="dd5090feb4"><path d="M 94.105469 86 L 210 86 L 210 253 L 94.105469 253 Z M 94.105469 86 " clip-rule="nonzero"/></clipPath><clipPath id="c9058eee1f"><rect x="0" width="160" y="0" height="21"/></clipPath></defs><g clip-path="url(#317d41aecd)"><path fill="#ffffff" d="M 280.789062 288.355469 C 275.417969 279.792969 270.042969 271.234375 264.660156 262.675781 L 256.585938 249.867188 L 248.480469 237.054688 L 232.242188 211.445312 L 217.011719 187.457031 L 236.625 158.65625 L 241.785156 151.085938 C 243.515625 148.566406 245.230469 146.039062 246.96875 143.527344 L 257.398438 128.453125 L 261.617188 122.359375 L 205.992188 121.988281 L 204.816406 124.082031 C 203.105469 127.152344 201.429688 130.238281 199.738281 133.320312 L 198.472656 135.632812 L 197.222656 137.960938 L 194.714844 142.597656 L 189.757812 151.902344 L 187.230469 156.707031 C 186.265625 155.242188 185.300781 153.78125 184.335938 152.320312 L 181.378906 147.898438 L 178.394531 143.488281 L 175.40625 139.089844 L 172.378906 134.710938 C 170.347656 131.792969 168.292969 128.894531 166.203125 126.015625 C 166.140625 125.914062 166.054688 125.847656 165.9375 125.816406 C 165.824219 125.785156 165.714844 125.800781 165.609375 125.863281 C 165.507812 125.921875 165.441406 126.007812 165.410156 126.125 C 165.382812 126.242188 165.394531 126.351562 165.457031 126.453125 C 166.972656 129.664062 168.53125 132.855469 170.128906 136.027344 L 172.523438 140.785156 L 174.949219 145.527344 L 177.394531 150.253906 L 179.863281 154.964844 C 181.523438 158.097656 183.183594 161.234375 184.867188 164.355469 L 187.296875 168.859375 L 190.191406 164.316406 C 192.078125 161.347656 193.921875 158.367188 195.789062 155.386719 L 201.339844 146.425781 L 204.089844 141.929688 L 205.464844 139.6875 L 206.828125 137.449219 C 208.203125 135.167969 209.585938 132.890625 210.953125 130.605469 C 212.042969 130.605469 245.300781 130.476562 246.621094 130.453125 L 240.90625 139.527344 C 239.28125 142.113281 237.628906 144.679688 235.988281 147.257812 L 231.054688 154.980469 L 211.289062 185.851562 L 210.257812 187.457031 L 211.289062 188.949219 L 228.425781 213.964844 L 245.597656 238.953125 L 254.1875 251.441406 L 262.800781 263.914062 C 268.542969 272.242188 274.300781 280.550781 280.082031 288.839844 C 280.148438 288.9375 280.238281 288.996094 280.351562 289.019531 C 280.464844 289.039062 280.570312 289.019531 280.667969 288.953125 C 280.765625 288.890625 280.824219 288.800781 280.847656 288.6875 C 280.871094 288.574219 280.851562 288.46875 280.789062 288.371094 Z M 280.789062 288.355469 " fill-opacity="1" fill-rule="nonzero"/></g><g clip-path="url(#dd5090feb4)"><path fill="#ffffff" d="M 204.902344 238.777344 L 202.511719 234.019531 L 200.085938 229.28125 L 197.636719 224.554688 L 195.171875 219.839844 C 193.507812 216.707031 191.855469 213.570312 190.167969 210.453125 L 187.738281 205.945312 L 184.84375 210.488281 C 182.953125 213.453125 181.109375 216.441406 179.242188 219.417969 L 173.691406 228.378906 L 170.945312 232.878906 L 169.566406 235.117188 L 168.207031 237.359375 C 166.832031 239.640625 165.460938 241.921875 164.101562 244.203125 C 163.011719 244.203125 129.753906 244.332031 128.425781 244.359375 L 134.128906 235.285156 C 135.757812 232.695312 137.410156 230.128906 139.050781 227.550781 L 143.984375 219.828125 L 163.75 188.953125 L 164.777344 187.347656 L 163.75 185.855469 L 146.613281 160.894531 L 129.4375 135.957031 L 120.851562 123.496094 L 112.226562 111.046875 C 106.492188 102.746094 100.734375 94.457031 94.953125 86.183594 C 94.890625 86.089844 94.800781 86.03125 94.691406 86.007812 C 94.578125 85.984375 94.476562 86.003906 94.378906 86.0625 C 94.28125 86.128906 94.21875 86.214844 94.191406 86.328125 C 94.164062 86.445312 94.183594 86.550781 94.242188 86.652344 C 99.621094 95.199219 104.996094 103.738281 110.371094 112.277344 L 118.449219 125.078125 L 126.554688 137.863281 L 142.785156 163.421875 L 158.023438 187.351562 L 138.421875 216.152344 L 133.257812 223.722656 C 131.53125 226.242188 129.820312 228.773438 128.078125 231.285156 L 117.644531 246.355469 L 113.429688 252.449219 L 169.058594 252.824219 L 170.234375 250.710938 C 171.949219 247.640625 173.628906 244.554688 175.316406 241.472656 L 176.582031 239.160156 L 177.835938 236.839844 L 180.34375 232.203125 L 185.277344 222.90625 L 187.804688 218.109375 L 190.699219 222.484375 L 193.65625 226.910156 L 196.640625 231.320312 L 199.628906 235.71875 L 202.65625 240.097656 C 204.683594 243.015625 206.742188 245.914062 208.832031 248.789062 C 208.894531 248.878906 208.984375 248.933594 209.089844 248.957031 C 209.195312 248.976562 209.296875 248.960938 209.390625 248.902344 C 209.484375 248.847656 209.546875 248.769531 209.582031 248.664062 C 209.613281 248.558594 209.605469 248.457031 209.558594 248.359375 C 208.054688 245.15625 206.503906 241.960938 204.902344 238.777344 Z M 204.902344 238.777344 " fill-opacity="1" fill-rule="nonzero"/></g><g transform="matrix(1, 0, 0, 1, 115, 270)"><g clip-path="url(#c9058eee1f)"><g fill="#ffffff" fill-opacity="1"><g transform="translate(1.045212, 15.895215)"><g><path d="M 5.984375 0.25 C 4.953125 0.25 4.03125 0.0234375 3.21875 -0.421875 C 2.40625 -0.878906 1.773438 -1.507812 1.328125 -2.3125 C 0.878906 -3.113281 0.65625 -4.023438 0.65625 -5.046875 C 0.65625 -6.078125 0.898438 -6.992188 1.390625 -7.796875 C 1.878906 -8.609375 2.53125 -9.234375 3.34375 -9.671875 C 4.164062 -10.109375 5.054688 -10.328125 6.015625 -10.328125 C 6.835938 -10.328125 7.628906 -10.148438 8.390625 -9.796875 C 9.160156 -9.453125 9.816406 -8.957031 10.359375 -8.3125 L 9.015625 -7.015625 C 8.554688 -7.503906 8.078125 -7.867188 7.578125 -8.109375 C 7.078125 -8.359375 6.546875 -8.484375 5.984375 -8.484375 C 5.347656 -8.484375 4.769531 -8.332031 4.25 -8.03125 C 3.726562 -7.738281 3.3125 -7.328125 3 -6.796875 C 2.695312 -6.273438 2.546875 -5.691406 2.546875 -5.046875 C 2.546875 -4.367188 2.691406 -3.765625 2.984375 -3.234375 C 3.285156 -2.710938 3.695312 -2.304688 4.21875 -2.015625 C 4.75 -1.722656 5.347656 -1.578125 6.015625 -1.578125 C 6.617188 -1.578125 7.148438 -1.691406 7.609375 -1.921875 C 8.078125 -2.160156 8.5625 -2.535156 9.0625 -3.046875 L 10.375 -1.6875 C 9.90625 -1.226562 9.457031 -0.859375 9.03125 -0.578125 C 8.601562 -0.304688 8.144531 -0.101562 7.65625 0.03125 C 7.164062 0.175781 6.609375 0.25 5.984375 0.25 Z M 5.984375 0.25 "/></g></g></g><g fill="#ffffff" fill-opacity="1"><g transform="translate(23.213623, 15.895215)"><g><path d="M 1.15625 -10.078125 L 3.078125 -10.078125 L 3.078125 -6.28125 L 6.46875 -6.28125 L 6.46875 -10.078125 L 8.390625 -10.078125 L 8.390625 0 L 6.46875 0 L 6.46875 -4.40625 L 3.078125 -4.40625 L 3.078125 0 L 1.15625 0 Z M 1.15625 -10.078125 "/></g></g></g><g fill="#ffffff" fill-opacity="1"><g transform="translate(43.97934, 15.895215)"><g><path d="M 7.71875 0 L 6.953125 -2.078125 L 2.765625 -2.078125 L 2 0 L 0 0 L 3.890625 -10.078125 L 5.828125 -10.078125 L 9.703125 0 Z M 3.484375 -3.953125 L 6.25 -3.953125 L 4.859375 -7.65625 Z M 3.484375 -3.953125 "/></g></g></g><g fill="#ffffff" fill-opacity="1"><g transform="translate(64.913381, 15.895215)"><g><path d="M 7.3125 -10.078125 L 9.234375 -10.078125 L 9.234375 0 L 7.375 0 L 3.078125 -6.59375 L 3.078125 0 L 1.15625 0 L 1.15625 -10.078125 L 2.984375 -10.078125 L 7.3125 -3.46875 Z M 7.3125 -10.078125 "/></g></g></g><g fill="#ffffff" fill-opacity="1"><g transform="translate(86.520715, 15.895215)"><g><path d="M 7.3125 -10.078125 L 9.234375 -10.078125 L 9.234375 0 L 7.375 0 L 3.078125 -6.59375 L 3.078125 0 L 1.15625 0 L 1.15625 -10.078125 L 2.984375 -10.078125 L 7.3125 -3.46875 Z M 7.3125 -10.078125 "/></g></g></g><g fill="#ffffff" fill-opacity="1"><g transform="translate(108.128049, 15.895215)"><g><path d="M 1.15625 -10.078125 L 6.65625 -10.078125 L 6.65625 -8.203125 L 3.078125 -8.203125 L 3.078125 -6.375 L 6.65625 -6.375 L 6.65625 -4.546875 L 3.078125 -4.546875 L 3.078125 -1.875 L 6.65625 -1.875 L 6.65625 0 L 1.15625 0 Z M 1.15625 -10.078125 "/></g></g></g><g fill="#ffffff" fill-opacity="1"><g transform="translate(126.635425, 15.895215)"><g><path d="M 3.078125 -10.078125 L 3.078125 -1.828125 L 5.859375 -1.828125 L 5.859375 0 L 1.15625 0 L 1.15625 -10.078125 Z M 3.078125 -10.078125 "/></g></g></g><g fill="#ffffff" fill-opacity="1"><g transform="translate(144.044077, 15.895215)"><g/></g></g></g></g></svg>