<svg xmlns="http://www.w3.org/2000/svg" xmlns:xlink="http://www.w3.org/1999/xlink" width="500" zoomAndPan="magnify" viewBox="0 0 375 374.999991" height="500" preserveAspectRatio="xMidYMid meet" version="1.0"><defs><clipPath id="b8573ba396"><path d="M 156 88 L 319.804688 88 L 319.804688 325.5 L 156 325.5 Z M 156 88 " clip-rule="nonzero"/></clipPath><clipPath id="da1c51ebf0"><path d="M 55.054688 37.5 L 219 37.5 L 219 275 L 55.054688 275 Z M 55.054688 37.5 " clip-rule="nonzero"/></clipPath></defs><g clip-path="url(#b8573ba396)"><path fill="#ffffff" d="M 319.800781 324.691406 C 312.183594 312.554688 304.558594 300.414062 296.929688 288.277344 L 285.476562 270.109375 L 273.980469 251.9375 L 250.957031 215.625 L 229.351562 181.605469 L 257.167969 140.761719 L 264.488281 130.023438 C 266.941406 126.449219 269.371094 122.867188 271.835938 119.304688 L 286.628906 97.929688 L 292.613281 89.289062 L 213.722656 88.757812 L 212.0625 91.730469 C 209.632812 96.082031 207.253906 100.460938 204.855469 104.828125 L 203.058594 108.109375 L 201.292969 111.410156 L 197.734375 117.984375 L 190.703125 131.183594 L 187.117188 137.992188 C 185.753906 135.917969 184.382812 133.847656 183.015625 131.777344 L 178.820312 125.503906 L 174.585938 119.25 L 170.351562 113.011719 L 166.054688 106.800781 C 163.179688 102.664062 160.261719 98.550781 157.296875 94.472656 C 157.214844 94.324219 157.089844 94.230469 156.925781 94.1875 C 156.761719 94.144531 156.605469 94.167969 156.460938 94.253906 C 156.3125 94.335938 156.21875 94.460938 156.175781 94.625 C 156.132812 94.789062 156.15625 94.945312 156.238281 95.089844 C 158.390625 99.644531 160.597656 104.171875 162.867188 108.671875 L 166.261719 115.417969 L 169.703125 122.140625 L 173.171875 128.84375 L 176.671875 135.527344 C 179.027344 139.96875 181.378906 144.414062 183.765625 148.84375 L 187.214844 155.226562 L 191.316406 148.789062 C 193.996094 144.578125 196.613281 140.347656 199.257812 136.125 L 207.125 123.417969 L 211.027344 117.039062 L 212.976562 113.859375 L 214.910156 110.683594 C 216.863281 107.449219 218.824219 104.21875 220.761719 100.980469 C 222.304688 100.980469 269.472656 100.796875 271.34375 100.761719 L 263.238281 113.632812 C 260.9375 117.300781 258.589844 120.9375 256.265625 124.597656 L 249.265625 135.546875 L 221.238281 179.328125 L 219.777344 181.605469 L 221.238281 183.722656 L 245.539062 219.195312 L 269.894531 254.632812 L 282.070312 272.34375 L 294.292969 290.035156 C 302.433594 301.84375 310.597656 313.628906 318.796875 325.382812 C 318.890625 325.515625 319.015625 325.601562 319.179688 325.632812 C 319.339844 325.664062 319.492188 325.636719 319.628906 325.542969 C 319.765625 325.453125 319.851562 325.328125 319.886719 325.164062 C 319.917969 325.003906 319.890625 324.851562 319.800781 324.714844 Z M 319.800781 324.691406 " fill-opacity="1" fill-rule="nonzero"/></g><g clip-path="url(#da1c51ebf0)"><path fill="#ffffff" d="M 212.183594 254.386719 L 208.789062 247.632812 L 205.351562 240.914062 L 201.878906 234.210938 L 198.378906 227.53125 C 196.023438 223.082031 193.679688 218.636719 191.285156 214.214844 L 187.839844 207.824219 L 183.734375 214.269531 C 181.054688 218.472656 178.441406 222.707031 175.792969 226.933594 L 167.917969 239.640625 L 164.023438 246.019531 L 162.070312 249.195312 L 160.140625 252.375 C 158.191406 255.609375 156.25 258.84375 154.316406 262.078125 C 152.773438 262.078125 105.605469 262.265625 103.726562 262.300781 L 111.8125 249.429688 C 114.121094 245.761719 116.464844 242.117188 118.789062 238.464844 L 125.789062 227.507812 L 153.820312 183.726562 L 155.277344 181.453125 L 153.820312 179.332031 L 129.519531 143.933594 L 105.164062 108.570312 L 92.984375 90.898438 L 80.753906 73.246094 C 72.621094 61.46875 64.457031 49.714844 56.257812 37.984375 C 56.164062 37.851562 56.039062 37.769531 55.882812 37.734375 C 55.722656 37.703125 55.578125 37.726562 55.441406 37.8125 C 55.300781 37.902344 55.210938 38.027344 55.175781 38.191406 C 55.136719 38.351562 55.164062 38.503906 55.25 38.644531 C 62.875 50.765625 70.5 62.878906 78.121094 74.988281 L 89.574219 93.140625 L 101.070312 111.269531 L 124.089844 147.519531 L 145.699219 181.457031 L 117.902344 222.300781 L 110.578125 233.039062 C 108.128906 236.605469 105.703125 240.195312 103.230469 243.757812 L 88.4375 265.132812 L 82.460938 273.773438 L 161.347656 274.304688 L 163.015625 271.308594 C 165.445312 266.953125 167.828125 262.574219 170.222656 258.207031 L 172.019531 254.925781 L 173.796875 251.636719 L 177.355469 245.0625 L 184.347656 231.878906 L 187.933594 225.074219 L 192.035156 231.28125 L 196.230469 237.554688 L 200.464844 243.8125 L 204.703125 250.050781 L 208.996094 256.257812 C 211.867188 260.398438 214.789062 264.503906 217.753906 268.585938 C 217.84375 268.710938 217.96875 268.789062 218.121094 268.820312 C 218.269531 268.851562 218.414062 268.824219 218.546875 268.746094 C 218.679688 268.667969 218.769531 268.554688 218.816406 268.40625 C 218.859375 268.257812 218.851562 268.113281 218.785156 267.972656 C 216.652344 263.429688 214.453125 258.898438 212.183594 254.386719 Z M 212.183594 254.386719 " fill-opacity="1" fill-rule="nonzero"/></g></svg>